<svg xmlns="http://www.w3.org/2000/svg" xmlns:xlink="http://www.w3.org/1999/xlink" version="1.1" class="marks" width="1198" height="574" viewBox="0 0 1198 574"><rect width="1198" height="574" fill="white"/><g fill="none" stroke-miterlimit="10" transform="translate(55,37)"><g class="mark-group role-frame root" role="graphics-object" aria-roledescription="group mark container"><g transform="translate(0,0)"><path class="background" aria-hidden="true" d="M0,0h1000v500h-1000Z" stroke="#ddd" stroke-width="0"/><g><g class="mark-group role-axis" aria-hidden="true"><g transform="translate(0.5,500.5)"><path class="background" aria-hidden="true" d="M0,0h0v0h0Z" pointer-events="none"/><g><g class="mark-rule role-axis-grid" pointer-events="none"><line transform="translate(79,-500)" x2="0" y2="500" stroke="#ddd" stroke-width="1" opacity="1"/><line transform="translate(158,-500)" x2="0" y2="500" stroke="#ddd" stroke-width="1" opacity="1"/><line transform="translate(240,-500)" x2="0" y2="500" stroke="#ddd" stroke-width="1" opacity="1"/><line transform="translate(322,-500)" x2="0" y2="500" stroke="#ddd" stroke-width="1" opacity="1"/><line transform="translate(396,-500)" x2="0" y2="500" stroke="#ddd" stroke-width="1" opacity="1"/><line transform="translate(478,-500)" x2="0" y2="500" stroke="#ddd" stroke-width="1" opacity="1"/><line transform="translate(557,-500)" x2="0" y2="500" stroke="#ddd" stroke-width="1" opacity="1"/><line transform="translate(639,-500)" x2="0" y2="500" stroke="#ddd" stroke-width="1" opacity="1"/><line transform="translate(718,-500)" x2="0" y2="500" stroke="#ddd" stroke-width="1" opacity="1"/><line transform="translate(799,-500)" x2="0" y2="500" stroke="#ddd" stroke-width="1" opacity="1"/><line transform="translate(881,-500)" x2="0" y2="500" stroke="#ddd" stroke-width="1" opacity="1"/><line transform="translate(960,-500)" x2="0" y2="500" stroke="#ddd" stroke-width="1" opacity="1"/></g></g><path class="foreground" aria-hidden="true" d="" pointer-events="none" display="none"/></g></g><g class="mark-group role-axis" aria-hidden="true"><g transform="translate(0.5,0.5)"><path class="background" aria-hidden="true" d="M0,0h0v0h0Z" pointer-events="none"/><g><g class="mark-rule role-axis-grid" pointer-events="none"><line transform="translate(0,500)" x2="1000" y2="0" stroke="#ddd" stroke-width="1" opacity="1"/><line transform="translate(0,472)" x2="1000" y2="0" stroke="#ddd" stroke-width="1" opacity="1"/><line transform="translate(0,444)" x2="1000" y2="0" stroke="#ddd" stroke-width="1" opacity="1"/><line transform="translate(0,417)" x2="1000" y2="0" stroke="#ddd" stroke-width="1" opacity="1"/><line transform="translate(0,389)" x2="1000" y2="0" stroke="#ddd" stroke-width="1" opacity="1"/><line transform="translate(0,361)" x2="1000" y2="0" stroke="#ddd" stroke-width="1" opacity="1"/><line transform="translate(0,333)" x2="1000" y2="0" stroke="#ddd" stroke-width="1" opacity="1"/><line transform="translate(0,306)" x2="1000" y2="0" stroke="#ddd" stroke-width="1" opacity="1"/><line transform="translate(0,278)" x2="1000" y2="0" stroke="#ddd" stroke-width="1" opacity="1"/><line transform="translate(0,250)" x2="1000" y2="0" stroke="#ddd" stroke-width="1" opacity="1"/><line transform="translate(0,222)" x2="1000" y2="0" stroke="#ddd" stroke-width="1" opacity="1"/><line transform="translate(0,194)" x2="1000" y2="0" stroke="#ddd" stroke-width="1" opacity="1"/><line transform="translate(0,167)" x2="1000" y2="0" stroke="#ddd" stroke-width="1" opacity="1"/><line transform="translate(0,139)" x2="1000" y2="0" stroke="#ddd" stroke-width="1" opacity="1"/><line transform="translate(0,111)" x2="1000" y2="0" stroke="#ddd" stroke-width="1" opacity="1"/><line transform="translate(0,83)" x2="1000" y2="0" stroke="#ddd" stroke-width="1" opacity="1"/><line transform="translate(0,56)" x2="1000" y2="0" stroke="#ddd" stroke-width="1" opacity="1"/><line transform="translate(0,28)" x2="1000" y2="0" stroke="#ddd" stroke-width="1" opacity="1"/><line transform="translate(0,0)" x2="1000" y2="0" stroke="#ddd" stroke-width="1" opacity="1"/></g></g><path class="foreground" aria-hidden="true" d="" pointer-events="none" display="none"/></g></g><g class="mark-group role-axis" role="graphics-symbol" aria-roledescription="axis" aria-label="X-axis titled 'Date' for a time scale with values from Wednesday, 02 October 2024, 12:00:00 AM to Thursday, 16 October 2025, 12:00:00 AM"><g transform="translate(0.5,500.5)"><path class="background" aria-hidden="true" d="M0,0h0v0h0Z" pointer-events="none"/><g><g class="mark-rule role-axis-tick" pointer-events="none"><line transform="translate(79,0)" x2="0" y2="5" stroke="#888" stroke-width="1" opacity="1"/><line transform="translate(158,0)" x2="0" y2="5" stroke="#888" stroke-width="1" opacity="1"/><line transform="translate(240,0)" x2="0" y2="5" stroke="#888" stroke-width="1" opacity="1"/><line transform="translate(322,0)" x2="0" y2="5" stroke="#888" stroke-width="1" opacity="1"/><line transform="translate(396,0)" x2="0" y2="5" stroke="#888" stroke-width="1" opacity="1"/><line transform="translate(478,0)" x2="0" y2="5" stroke="#888" stroke-width="1" opacity="1"/><line transform="translate(557,0)" x2="0" y2="5" stroke="#888" stroke-width="1" opacity="1"/><line transform="translate(639,0)" x2="0" y2="5" stroke="#888" stroke-width="1" opacity="1"/><line transform="translate(718,0)" x2="0" y2="5" stroke="#888" stroke-width="1" opacity="1"/><line transform="translate(799,0)" x2="0" y2="5" stroke="#888" stroke-width="1" opacity="1"/><line transform="translate(881,0)" x2="0" y2="5" stroke="#888" stroke-width="1" opacity="1"/><line transform="translate(960,0)" x2="0" y2="5" stroke="#888" stroke-width="1" opacity="1"/></g><g class="mark-text role-axis-label" pointer-events="none"><text text-anchor="middle" transform="translate(79.155672823219,15)" font-family="Libre Franklin" font-size="10px" fill="#545151" opacity="1">November</text><text text-anchor="middle" transform="translate(158.4212840809147,15)" font-family="Libre Franklin" font-size="10px" fill="#545151" opacity="1">December</text><text text-anchor="middle" transform="translate(240.2154793315743,15)" font-family="Libre Franklin" font-size="10px" fill="#545151" opacity="1">2025</text><text text-anchor="middle" transform="translate(322.00967458223397,15)" font-family="Libre Franklin" font-size="10px" fill="#545151" opacity="1">February</text><text text-anchor="middle" transform="translate(395.88830255057167,15)" font-family="Libre Franklin" font-size="10px" fill="#545151" opacity="1">March</text><text text-anchor="middle" transform="translate(477.57255936675466,15)" font-family="Libre Franklin" font-size="10px" fill="#545151" opacity="1">April</text><text text-anchor="middle" transform="translate(556.7282321899736,15)" font-family="Libre Franklin" font-size="10px" fill="#545151" opacity="1">May</text><text text-anchor="middle" transform="translate(638.5224274406332,15)" font-family="Libre Franklin" font-size="10px" fill="#545151" opacity="1">June</text><text text-anchor="middle" transform="translate(717.6781002638522,15)" font-family="Libre Franklin" font-size="10px" fill="#545151" opacity="1">July</text><text text-anchor="middle" transform="translate(799.4722955145119,15)" font-family="Libre Franklin" font-size="10px" fill="#545151" opacity="1">August</text><text text-anchor="middle" transform="translate(881.2664907651715,15)" font-family="Libre Franklin" font-size="10px" fill="#545151" opacity="1">September</text><text text-anchor="middle" transform="translate(960.4221635883905,15)" font-family="Libre Franklin" font-size="10px" fill="#545151" opacity="1">October</text></g><g class="mark-rule role-axis-domain" pointer-events="none"><line transform="translate(0,0)" x2="1000" y2="0" stroke="#888" stroke-width="1" opacity="1"/></g><g class="mark-text role-axis-title" pointer-events="none"><text text-anchor="middle" transform="translate(500,30)" font-family="Libre Franklin" font-size="11px" font-weight="bold" fill="#000" opacity="1">Date</text></g></g><path class="foreground" aria-hidden="true" d="" pointer-events="none" display="none"/></g></g><g class="mark-group role-axis" role="graphics-symbol" aria-roledescription="axis" aria-label="Y-axis titled 'President to Journalist Turn Ratio (7-Day Average)' for a linear scale with values from 0 to 9"><g transform="translate(0.5,0.5)"><path class="background" aria-hidden="true" d="M0,0h0v0h0Z" pointer-events="none"/><g><g class="mark-rule role-axis-tick" pointer-events="none"><line transform="translate(0,500)" x2="-5" y2="0" stroke="#888" stroke-width="1" opacity="1"/><line transform="translate(0,472)" x2="-5" y2="0" stroke="#888" stroke-width="1" opacity="1"/><line transform="translate(0,444)" x2="-5" y2="0" stroke="#888" stroke-width="1" opacity="1"/><line transform="translate(0,417)" x2="-5" y2="0" stroke="#888" stroke-width="1" opacity="1"/><line transform="translate(0,389)" x2="-5" y2="0" stroke="#888" stroke-width="1" opacity="1"/><line transform="translate(0,361)" x2="-5" y2="0" stroke="#888" stroke-width="1" opacity="1"/><line transform="translate(0,333)" x2="-5" y2="0" stroke="#888" stroke-width="1" opacity="1"/><line transform="translate(0,306)" x2="-5" y2="0" stroke="#888" stroke-width="1" opacity="1"/><line transform="translate(0,278)" x2="-5" y2="0" stroke="#888" stroke-width="1" opacity="1"/><line transform="translate(0,250)" x2="-5" y2="0" stroke="#888" stroke-width="1" opacity="1"/><line transform="translate(0,222)" x2="-5" y2="0" stroke="#888" stroke-width="1" opacity="1"/><line transform="translate(0,194)" x2="-5" y2="0" stroke="#888" stroke-width="1" opacity="1"/><line transform="translate(0,167)" x2="-5" y2="0" stroke="#888" stroke-width="1" opacity="1"/><line transform="translate(0,139)" x2="-5" y2="0" stroke="#888" stroke-width="1" opacity="1"/><line transform="translate(0,111)" x2="-5" y2="0" stroke="#888" stroke-width="1" opacity="1"/><line transform="translate(0,83)" x2="-5" y2="0" stroke="#888" stroke-width="1" opacity="1"/><line transform="translate(0,56)" x2="-5" y2="0" stroke="#888" stroke-width="1" opacity="1"/><line transform="translate(0,28)" x2="-5" y2="0" stroke="#888" stroke-width="1" opacity="1"/><line transform="translate(0,0)" x2="-5" y2="0" stroke="#888" stroke-width="1" opacity="1"/></g><g class="mark-text role-axis-label" pointer-events="none"><text text-anchor="end" transform="translate(-7,503)" font-family="Libre Franklin" font-size="10px" fill="#545151" opacity="1">0.0</text><text text-anchor="end" transform="translate(-7,475.22222222222223)" font-family="Libre Franklin" font-size="10px" fill="#545151" opacity="1">0.5</text><text text-anchor="end" transform="translate(-7,447.4444444444444)" font-family="Libre Franklin" font-size="10px" fill="#545151" opacity="1">1.0</text><text text-anchor="end" transform="translate(-7,419.6666666666667)" font-family="Libre Franklin" font-size="10px" fill="#545151" opacity="1">1.5</text><text text-anchor="end" transform="translate(-7,391.8888888888889)" font-family="Libre Franklin" font-size="10px" fill="#545151" opacity="1">2.0</text><text text-anchor="end" transform="translate(-7,364.1111111111111)" font-family="Libre Franklin" font-size="10px" fill="#545151" opacity="1">2.5</text><text text-anchor="end" transform="translate(-7,336.33333333333337)" font-family="Libre Franklin" font-size="10px" fill="#545151" opacity="1">3.0</text><text text-anchor="end" transform="translate(-7,308.5555555555556)" font-family="Libre Franklin" font-size="10px" fill="#545151" opacity="1">3.5</text><text text-anchor="end" transform="translate(-7,280.77777777777777)" font-family="Libre Franklin" font-size="10px" fill="#545151" opacity="1">4.0</text><text text-anchor="end" transform="translate(-7,253)" font-family="Libre Franklin" font-size="10px" fill="#545151" opacity="1">4.5</text><text text-anchor="end" transform="translate(-7,225.2222222222222)" font-family="Libre Franklin" font-size="10px" fill="#545151" opacity="1">5.0</text><text text-anchor="end" transform="translate(-7,197.44444444444443)" font-family="Libre Franklin" font-size="10px" fill="#545151" opacity="1">5.5</text><text text-anchor="end" transform="translate(-7,169.66666666666669)" font-family="Libre Franklin" font-size="10px" fill="#545151" opacity="1">6.0</text><text text-anchor="end" transform="translate(-7,141.88888888888889)" font-family="Libre Franklin" font-size="10px" fill="#545151" opacity="1">6.5</text><text text-anchor="end" transform="translate(-7,114.1111111111111)" font-family="Libre Franklin" font-size="10px" fill="#545151" opacity="1">7.0</text><text text-anchor="end" transform="translate(-7,86.33333333333331)" font-family="Libre Franklin" font-size="10px" fill="#545151" opacity="1">7.5</text><text text-anchor="end" transform="translate(-7,58.55555555555558)" font-family="Libre Franklin" font-size="10px" fill="#545151" opacity="1">8.0</text><text text-anchor="end" transform="translate(-7,30.77777777777779)" font-family="Libre Franklin" font-size="10px" fill="#545151" opacity="1">8.5</text><text text-anchor="end" transform="translate(-7,3)" font-family="Libre Franklin" font-size="10px" fill="#545151" opacity="1">9.0</text></g><g class="mark-rule role-axis-domain" pointer-events="none"><line transform="translate(0,500)" x2="0" y2="-500" stroke="#888" stroke-width="1" opacity="1"/></g><g class="mark-text role-axis-title" pointer-events="none"><text text-anchor="middle" transform="translate(-38.8076171875,250) rotate(-90) translate(0,-2)" font-family="Libre Franklin" font-size="11px" font-weight="bold" fill="#000" opacity="1">President to Journalist Turn Ratio (7-Day Average)</text></g></g><path class="foreground" aria-hidden="true" d="" pointer-events="none" display="none"/></g></g><g class="mark-group role-scope layer_0_pathgroup" role="graphics-object" aria-roledescription="group mark container"><g transform="translate(0,0)"><path class="background" aria-hidden="true" d="M0,0h1000v500h-1000Z"/><g><g class="mark-line role-mark layer_0_marks" role="graphics-object" aria-roledescription="line mark container"><path aria-label="Date: Oct 02, 2024; President to Journalist Turn Ratio (7-Day Average): 5.72222222222; Section of Conference: Whole Conference; Section: Whole Conference; 7-Day Avg Ratio: 5.72" role="graphics-symbol" aria-roledescription="line mark" d="M0,182.099L2.639,203.585L5.277,174.132L13.193,187.147L15.831,217.866L18.47,209.622L21.108,198.833L23.747,182.267L31.662,182.628L34.301,203.072L36.939,205.15L39.578,183.03L42.216,183.038L50.132,181.341L52.77,203.345L55.409,207.679L58.047,203.341L60.686,205.415L68.602,220.779L71.24,255.392L73.879,296.244L76.517,308.166L87.181,304.197L89.82,312.515L92.458,315.237L95.097,302.758L97.735,282.58L105.651,257.54L108.289,267.365L110.928,251.802L113.566,237.96L116.205,229.952L129.398,205.471L132.036,204.889L134.675,213.489L142.59,187.777L145.229,200.884L147.867,192.624L150.506,209.493L153.144,240.764L161.06,231.25L163.698,235.925L166.337,244.038L168.975,257.832L171.614,262.859L179.529,254.493L182.168,252.104L184.807,234.414L190.084,191.836L197.999,142.868L200.638,134.598L203.276,128.105L205.915,111.137L208.553,101.571L216.469,117.135L224.384,124.043L227.023,170.214L234.938,163.155L242.854,164.83L245.493,109.915L253.408,119.514L256.047,112.888L258.685,128.004L261.324,134.001L263.962,105.962L271.878,78.468L274.516,125.482L277.155,99.921L279.793,105.567L282.432,72.74L290.347,63.463L292.986,70.55L295.624,112.631L298.263,116.214L300.901,68.5L308.817,40.697L311.456,80.384L314.094,82.1L316.733,127.123L319.371,35.825L327.287,37.268L329.925,98.793L332.564,91.141L335.202,66.224L337.841,32.742L345.756,26.319L348.395,134.866L351.033,158.251L353.672,183.377L356.31,187.904L364.226,218.387L366.865,257.226L369.503,227.398L372.142,199.913L374.78,162.441L382.696,135.566L385.334,181.91L387.973,185.04L393.25,179.661L401.165,205.427L403.804,214.965L406.442,234.888L409.081,207.103L411.719,184.706L424.802,158.803L427.441,162.308L437.995,158.354L440.633,120.044L443.272,129.623L445.91,153.609L448.549,141.247L456.464,104.436L459.103,126.946L461.741,115.568L464.38,153.793L467.018,133.029L474.934,154.486L477.573,196.285L480.211,246.338L482.85,215.031L485.488,227.142L493.404,213.339L496.042,234.68L498.681,253.259L501.319,229.034L503.958,207.223L511.873,226.673L514.512,234.026L517.15,252.85L530.343,245.067L532.982,226.152L535.62,216.667L538.259,255.119L540.897,227.761L548.813,216.472L551.451,229.089L554.09,239.101L556.728,226.026L567.282,244.841L569.921,238.001L572.559,258.406L575.198,242.556L577.836,201.383L585.752,202.415L588.391,226.03L591.029,192.452L593.668,172.847L596.306,108.263L604.222,128.012L606.86,165.426L609.499,147.131L612.137,142.984L614.776,183.556L625.33,211.113L627.968,277.998L630.607,284.973L641.161,270.822L643.799,284.822L646.438,288.447L649.077,289.16L651.715,263.059L659.631,274.624L662.269,280.897L664.908,293.286L667.546,287.717L670.185,270.206L678.1,301.07L680.739,351.957L683.377,332.824L686.016,328.509L688.654,330.08L696.57,335.741L699.208,335.484L701.847,294.515L704.485,237.156L707.124,232.89L715.04,224.913L717.678,203.345L720.317,198.852L722.955,217.898L725.594,208.097L733.509,237.621L736.148,259.168L738.786,251.263L741.425,265.611L744.063,266.959L751.979,247.726L754.617,258.152L757.256,259.495L759.894,237.385L762.533,231.017L770.449,228.156L773.087,247.365L775.726,261.378L778.364,263.173L781.003,241.853L788.918,248.144L791.557,244.613L794.195,245.742L796.834,243.144L799.472,211.635L807.388,214.544L810.026,231.655L812.665,237.146L815.303,254.021L817.942,231.964L825.858,223.072L828.496,217.42L831.135,236.47L833.773,222.583L836.412,192.396L844.327,174.76L846.966,189.854L849.604,200.602L852.243,231.955L862.797,205.035L865.435,192.64L868.074,220.021L870.712,237.32L873.351,250.927L883.905,209.532L886.544,208.224L889.182,217.457L891.821,201.918L899.736,207.497L902.375,213.779L905.013,203.501L907.652,242.885L910.29,193.67L923.483,188.674L926.121,214.177L928.76,177.057L936.675,164.251L939.314,172.777L941.953,166.241L944.591,227.717L947.23,180.363L955.145,182.533L960.422,209.075L963.061,197.693L965.699,95.745L973.615,90.785L976.253,87.161L978.892,135.547L981.53,129.171L984.169,129.683L992.084,127.131L994.723,201.111L997.361,198.985L1000,188.527" stroke="#9B2915" stroke-width="3"/></g></g><path class="foreground" aria-hidden="true" d="" display="none"/></g><g transform="translate(0,0)"><path class="background" aria-hidden="true" d="M0,0h1000v500h-1000Z"/><g><g class="mark-line role-mark layer_0_marks" role="graphics-object" aria-roledescription="line mark container"><path aria-label="Date: Oct 02, 2024; President to Journalist Turn Ratio (7-Day Average): 4.5; Section of Conference: After Journalists Start; Section: After Journalists Start; 7-Day Avg Ratio: 4.50" role="graphics-symbol" aria-roledescription="line mark" d="M0,250L2.639,283.832L5.277,268.782L13.193,267.559L15.831,291.331L18.47,281.549L21.108,270.884L23.747,247.264L31.662,239.774L34.301,244.962L36.939,242.858L39.578,215.432L42.216,230.841L50.132,238.322L52.77,260.032L55.409,266.642L58.047,264.303L60.686,280.189L68.602,300.233L71.24,311.83L73.879,334.442L76.517,346.227L87.181,337.723L89.82,343.827L92.458,335.502L95.097,318.401L97.735,307.47L105.651,284.45L108.289,292.805L110.928,292.522L113.566,278.867L116.205,269.159L129.398,262.908L132.036,256.148L134.675,264.674L142.59,250.22L145.229,251.543L147.867,258.921L150.506,274.487L153.144,290.044L161.06,279.868L163.698,283.404L166.337,283.597L168.975,292.053L171.614,296.749L179.529,290.686L182.168,296.032L184.807,294.611L190.084,274.491L197.999,221.86L200.638,215.582L203.276,205.86L205.915,188.087L208.553,180.996L216.469,176.499L224.384,159.097L227.023,208.554L234.938,200.767L242.854,188.296L245.493,200.986L253.408,202.387L256.047,204.654L258.685,225.627L261.324,231.095L263.962,223.476L271.878,233.396L274.516,218.808L277.155,193.109L279.793,205.929L282.432,211.705L290.347,208.143L292.986,215.163L295.624,224.023L298.263,227.077L300.901,216.212L308.817,179.682L311.456,178.308L314.094,178.227L316.733,202.21L319.371,203.598L327.287,210.332L329.925,243.289L332.564,266.213L335.202,253.081L337.841,245.805L345.756,244.743L348.395,258.323L351.033,269.331L353.672,280.63L356.31,282.648L364.226,300.721L366.865,306.482L369.503,283.432L372.142,255.853L374.78,251.261L382.696,239.493L385.334,257.452L387.973,260.784L393.25,262.592L401.165,276.276L403.804,284.619L406.442,272.913L409.081,230.427L411.719,218.229L424.802,191.778L427.441,191.596L437.995,188.829L440.633,173.003L443.272,187.808L445.91,234.898L448.549,225.969L456.464,207.602L459.103,226.504L461.741,215.679L464.38,239.796L467.018,221.023L474.934,223.339L477.573,244.437L480.211,276.5L482.85,256.546L485.488,265.221L493.404,242.7L496.042,255.927L498.681,284.828L501.319,272.234L503.958,274.49L511.873,282.649L514.512,291.307L517.15,309.72L530.343,309.492L532.982,281.103L535.62,289.465L538.259,300.815L540.897,294.52L548.813,281.91L551.451,295.778L554.09,301.405L556.728,293.57L567.282,290.395L569.921,283.615L572.559,282.91L575.198,298.158L577.836,284.15L585.752,283.16L588.391,296.318L591.029,281.094L593.668,276.785L596.306,243.528L604.222,232.135L606.86,243.246L609.499,226.157L612.137,222.033L614.776,236.8L625.33,251.548L627.968,287.111L630.607,296.946L641.161,280.684L643.799,296.467L646.438,302.983L649.077,307.584L651.715,286.733L659.631,299.879L662.269,303.239L664.908,315.653L667.546,304.936L670.185,301.564L678.1,328.372L680.739,371.322L683.377,354.957L686.016,350.627L688.654,352.207L696.57,360.52L699.208,343.237L701.847,302.482L704.485,265.685L707.124,275.776L715.04,276.013L717.678,264.961L720.317,257.773L722.955,276.775L725.594,287.068L733.509,296.144L736.148,302.054L738.786,295.085L741.425,298.867L744.063,304.777L751.979,291.932L754.617,282.216L757.256,288.138L759.894,262.965L762.533,261.84L770.449,259.012L773.087,273.624L775.726,281.267L778.364,283.059L781.003,266.916L788.918,273.24L791.557,255.468L794.195,256.589L796.834,254.062L799.472,222.669L807.388,225.566L810.026,232.909L812.665,238.373L815.303,255.154L817.942,256.345L825.858,247.377L828.496,261.59L831.135,280.546L833.773,273.336L836.412,260.865L844.327,243.302L846.966,235.13L849.604,245.922L852.243,257.277L862.797,243.907L865.435,236.158L868.074,245.841L870.712,264.943L873.351,278.498L883.905,247.312L886.544,254.086L889.182,253.853L891.821,268.758L899.736,274.297L902.375,282.268L905.013,272.029L907.652,302.919L910.29,296.688L923.483,287.688L926.121,275.962L928.76,275.845L936.675,259.486L939.314,268.021L941.953,259.75L944.591,270.184L947.23,278.755L955.145,282.004L960.422,282.703L963.061,279.76L965.699,233.223L973.615,228.272L976.253,224.615L978.892,217.084L981.53,205.166L984.169,194.552L992.084,183.617L994.723,202.325L997.361,200.199L1000,192.942" stroke="#E9B872" stroke-width="3"/></g></g><path class="foreground" aria-hidden="true" d="" display="none"/></g></g><g class="mark-rule role-mark layer_1_marks" role="graphics-object" aria-roledescription="rule mark container"><line aria-label="y: 8" role="graphics-symbol" aria-roledescription="rule mark" transform="translate(1000,55.55555555555558)" x2="-1000" y2="0" stroke="black" stroke-dasharray="3,3"/></g><g class="mark-text role-mark layer_2_marks" role="graphics-object" aria-roledescription="text mark container"><text aria-label="y: 8" role="graphics-symbol" aria-roledescription="text mark" text-anchor="start" transform="translate(510,54.55555555555558)" font-family="sans-serif" font-size="12px" fill="black">Sometimes, the president talks 8 times more than the journalists</text></g><g class="mark-rule role-mark layer_3_marks" role="graphics-object" aria-roledescription="rule mark container"><line aria-label="y: 4" role="graphics-symbol" aria-roledescription="rule mark" transform="translate(1000,277.77777777777777)" x2="-1000" y2="0" stroke="black" stroke-dasharray="3,3"/></g><g class="mark-text role-mark layer_4_marks" role="graphics-object" aria-roledescription="text mark container"><text aria-label="y: 4" role="graphics-symbol" aria-roledescription="text mark" text-anchor="start" transform="translate(510,276.77777777777777)" font-family="sans-serif" font-size="12px" fill="black">In average, she talks 4 times more than the journalists</text></g><g class="mark-group role-legend" role="graphics-symbol" aria-roledescription="legend" aria-label="Symbol legend titled 'Section of Conference' for stroke color with 2 values: Whole Conference, After Journalists Start"><g transform="translate(1021,0)"><path class="background" aria-hidden="true" d="M0,0h117v40h-117Z" pointer-events="none"/><g><g class="mark-group role-legend-entry"><g transform="translate(0,16)"><path class="background" aria-hidden="true" d="M0,0h0v0h0Z" pointer-events="none"/><g><g class="mark-group role-scope" role="graphics-object" aria-roledescription="group mark container"><g transform="translate(0,0)"><path class="background" aria-hidden="true" d="M0,0h111.5908203125v11h-111.5908203125Z" pointer-events="none" opacity="1"/><g><g class="mark-symbol role-legend-symbol" pointer-events="none"><path transform="translate(6,6)" d="M-5,0L5,0" stroke="#9B2915" stroke-width="1.5" opacity="1"/></g><g class="mark-text role-legend-label" pointer-events="none"><text text-anchor="start" transform="translate(16,9)" font-family="sans-serif" font-size="10px" fill="#000" opacity="1">Whole Conference</text></g></g><path class="foreground" aria-hidden="true" d="" pointer-events="none" display="none"/></g><g transform="translate(0,13)"><path class="background" aria-hidden="true" d="M0,0h111.5908203125v11h-111.5908203125Z" pointer-events="none" opacity="1"/><g><g class="mark-symbol role-legend-symbol" pointer-events="none"><path transform="translate(6,6)" d="M-5,0L5,0" stroke="#E9B872" stroke-width="1.5" opacity="1"/></g><g class="mark-text role-legend-label" pointer-events="none"><text text-anchor="start" transform="translate(16,9)" font-family="sans-serif" font-size="10px" fill="#000" opacity="1">After Journalists Start</text></g></g><path class="foreground" aria-hidden="true" d="" pointer-events="none" display="none"/></g></g></g><path class="foreground" aria-hidden="true" d="" pointer-events="none" display="none"/></g></g><g class="mark-text role-legend-title" pointer-events="none"><text text-anchor="start" transform="translate(0,9)" font-family="sans-serif" font-size="11px" font-weight="bold" fill="#000" opacity="1">Section of Conference</text></g></g><path class="foreground" aria-hidden="true" d="" pointer-events="none" display="none"/></g></g><g class="mark-group role-title"><g transform="translate(500,-31)"><path class="background" aria-hidden="true" d="M0,0h0v0h0Z" pointer-events="none"/><g><g class="mark-text role-title-text" role="graphics-symbol" aria-roledescription="title" aria-label="Title text 'President vs Journalist Turn Ratio'" pointer-events="none"><text text-anchor="middle" transform="translate(0,17)" font-family="Libre Franklin" font-size="22px" font-weight="bold" fill="#313030" opacity="1">President vs Journalist Turn Ratio</text></g></g><path class="foreground" aria-hidden="true" d="" pointer-events="none" display="none"/></g></g></g><path class="foreground" aria-hidden="true" d="" display="none"/></g></g></g></svg>